<svg width="195" height="88" viewBox="0 0 195 88" fill="none" xmlns="http://www.w3.org/2000/svg">
<path d="M143.936 7.84937C144.935 5.85112 146.978 4.58887 149.212 4.58887H180.26C184.645 4.58887 187.497 9.20319 185.536 13.125L150.146 83.9046C149.147 85.9029 147.104 87.1651 144.87 87.1651H113.822C109.437 87.1651 106.585 82.5508 108.546 78.629L143.936 7.84937Z" fill="#430975"/>
<g filter="url(#filter0_i_116_2650)">
<path d="M148.36 3.42555C149.359 1.42729 151.402 0.165039 153.636 0.165039H184.684C189.069 0.165039 191.92 4.77936 189.96 8.70115L154.57 79.4808C153.571 81.4791 151.528 82.7413 149.294 82.7413H118.246C113.861 82.7413 111.009 78.127 112.97 74.2052L148.36 3.42555Z" fill="#710BED"/>
</g>
<path d="M149.611 7.87688C150.604 5.86353 152.655 4.58887 154.9 4.58887H178.378C182.749 4.58887 185.602 9.17754 183.667 13.0975L152.856 75.5305C151.862 77.5439 149.812 78.8185 147.567 78.8185H124.089C119.718 78.8185 116.865 74.2298 118.8 70.3099L149.611 7.87688Z" fill="#E66C00"/>
<g filter="url(#filter1_i_116_2650)">
<path d="M152.559 6.40227C153.553 4.38892 155.604 3.11426 157.849 3.11426H181.327C185.698 3.11426 188.55 7.70293 186.616 11.6229L155.805 74.0559C154.811 76.0692 152.761 77.3439 150.516 77.3439H127.038C122.666 77.3439 119.814 72.7552 121.748 68.8353L152.559 6.40227Z" fill="url(#paint0_linear_116_2650)"/>
</g>
<path d="M91.797 7.84937C92.7962 5.85112 94.8385 4.58887 97.0726 4.58887H128.121C132.506 4.58887 135.357 9.20319 133.397 13.125L98.0067 83.9046C97.0076 85.9029 94.9652 87.1651 92.7311 87.1651H61.6828C57.2981 87.1651 54.4463 82.5508 56.4072 78.629L91.797 7.84937Z" fill="#430975"/>
<g filter="url(#filter2_i_116_2650)">
<path d="M96.2204 3.42555C97.2195 1.42729 99.2619 0.165039 101.496 0.165039H132.544C136.929 0.165039 139.781 4.77936 137.82 8.70115L102.43 79.4808C101.431 81.4791 99.3885 82.7413 97.1544 82.7413H66.1062C61.7215 82.7413 58.8697 78.127 60.8306 74.2052L96.2204 3.42555Z" fill="#710BED"/>
</g>
<path d="M97.4711 7.87688C98.4647 5.86353 100.515 4.58887 102.76 4.58887H126.238C130.61 4.58887 133.462 9.17754 131.528 13.0975L100.716 75.5305C99.7228 77.5439 97.6723 78.8185 95.4271 78.8185H71.9493C67.578 78.8185 64.7255 74.2298 66.66 70.3099L97.4711 7.87688Z" fill="#E66C00"/>
<g filter="url(#filter3_i_116_2650)">
<path d="M100.42 6.40227C101.414 4.38892 103.464 3.11426 105.71 3.11426H129.187C133.559 3.11426 136.411 7.70293 134.477 11.6229L103.666 74.0559C102.672 76.0692 100.622 77.3439 98.3763 77.3439H74.8985C70.5272 77.3439 67.6747 72.7552 69.6092 68.8353L100.42 6.40227Z" fill="url(#paint1_linear_116_2650)"/>
</g>
<path d="M39.6579 7.84937C40.657 5.85112 42.6994 4.58887 44.9335 4.58887H75.9818C80.3665 4.58887 83.2183 9.20319 81.2574 13.125L45.8675 83.9046C44.8684 85.9029 42.826 87.1651 40.5919 87.1651H9.54366C5.15896 87.1651 2.30716 82.5508 4.26805 78.629L39.6579 7.84937Z" fill="#430975"/>
<g filter="url(#filter4_i_116_2650)">
<path d="M44.0817 3.42555C45.0808 1.42729 47.1232 0.165039 49.3573 0.165039H80.4056C84.7903 0.165039 87.6421 4.77936 85.6812 8.70115L50.2914 79.4808C49.2922 81.4791 47.2499 82.7413 45.0158 82.7413H13.9675C9.58279 82.7413 6.73099 78.127 8.69188 74.2052L44.0817 3.42555Z" fill="#710BED"/>
</g>
<path d="M45.3324 7.87688C46.326 5.86353 48.3765 4.58887 50.6217 4.58887H74.0996C78.4708 4.58887 81.3233 9.17754 79.3888 13.0975L48.5777 75.5305C47.5841 77.5439 45.5336 78.8185 43.2885 78.8185H19.8106C15.4393 78.8185 12.5868 74.2298 14.5213 70.3099L45.3324 7.87688Z" fill="#E66C00"/>
<g filter="url(#filter5_i_116_2650)">
<path d="M48.2811 6.40227C49.2748 4.38892 51.3252 3.11426 53.5704 3.11426H77.0483C81.4196 3.11426 84.2721 7.70293 82.3376 11.6229L51.5265 74.0559C50.5329 76.0692 48.4824 77.3439 46.2372 77.3439H22.7593C18.388 77.3439 15.5355 72.7552 17.47 68.8353L48.2811 6.40227Z" fill="url(#paint2_linear_116_2650)"/>
</g>
<defs>
<filter id="filter0_i_116_2650" x="112.34" y="-1.30954" width="81.1992" height="84.0507" filterUnits="userSpaceOnUse" color-interpolation-filters="sRGB">
<feFlood flood-opacity="0" result="BackgroundImageFix"/>
<feBlend mode="normal" in="SourceGraphic" in2="BackgroundImageFix" result="shape"/>
<feColorMatrix in="SourceAlpha" type="matrix" values="0 0 0 0 0 0 0 0 0 0 0 0 0 0 0 0 0 0 127 0" result="hardAlpha"/>
<feOffset dx="2.94915" dy="-1.47458"/>
<feGaussianBlur stdDeviation="3.68644"/>
<feComposite in2="hardAlpha" operator="arithmetic" k2="-1" k3="1"/>
<feColorMatrix type="matrix" values="0 0 0 0 1 0 0 0 0 1 0 0 0 0 1 0 0 0 0.45 0"/>
<feBlend mode="normal" in2="shape" result="effect1_innerShadow_116_2650"/>
</filter>
<filter id="filter1_i_116_2650" x="121.132" y="1.63968" width="67.5752" height="75.7041" filterUnits="userSpaceOnUse" color-interpolation-filters="sRGB">
<feFlood flood-opacity="0" result="BackgroundImageFix"/>
<feBlend mode="normal" in="SourceGraphic" in2="BackgroundImageFix" result="shape"/>
<feColorMatrix in="SourceAlpha" type="matrix" values="0 0 0 0 0 0 0 0 0 0 0 0 0 0 0 0 0 0 127 0" result="hardAlpha"/>
<feOffset dx="2.94915" dy="-1.47458"/>
<feGaussianBlur stdDeviation="0.737288"/>
<feComposite in2="hardAlpha" operator="arithmetic" k2="-1" k3="1"/>
<feColorMatrix type="matrix" values="0 0 0 0 1 0 0 0 0 1 0 0 0 0 1 0 0 0 0.55 0"/>
<feBlend mode="normal" in2="shape" result="effect1_innerShadow_116_2650"/>
</filter>
<filter id="filter2_i_116_2650" x="60.2002" y="-1.30954" width="81.1992" height="84.0507" filterUnits="userSpaceOnUse" color-interpolation-filters="sRGB">
<feFlood flood-opacity="0" result="BackgroundImageFix"/>
<feBlend mode="normal" in="SourceGraphic" in2="BackgroundImageFix" result="shape"/>
<feColorMatrix in="SourceAlpha" type="matrix" values="0 0 0 0 0 0 0 0 0 0 0 0 0 0 0 0 0 0 127 0" result="hardAlpha"/>
<feOffset dx="2.94915" dy="-1.47458"/>
<feGaussianBlur stdDeviation="3.68644"/>
<feComposite in2="hardAlpha" operator="arithmetic" k2="-1" k3="1"/>
<feColorMatrix type="matrix" values="0 0 0 0 1 0 0 0 0 1 0 0 0 0 1 0 0 0 0.45 0"/>
<feBlend mode="normal" in2="shape" result="effect1_innerShadow_116_2650"/>
</filter>
<filter id="filter3_i_116_2650" x="68.9927" y="1.63968" width="67.5752" height="75.7041" filterUnits="userSpaceOnUse" color-interpolation-filters="sRGB">
<feFlood flood-opacity="0" result="BackgroundImageFix"/>
<feBlend mode="normal" in="SourceGraphic" in2="BackgroundImageFix" result="shape"/>
<feColorMatrix in="SourceAlpha" type="matrix" values="0 0 0 0 0 0 0 0 0 0 0 0 0 0 0 0 0 0 127 0" result="hardAlpha"/>
<feOffset dx="2.94915" dy="-1.47458"/>
<feGaussianBlur stdDeviation="0.737288"/>
<feComposite in2="hardAlpha" operator="arithmetic" k2="-1" k3="1"/>
<feColorMatrix type="matrix" values="0 0 0 0 1 0 0 0 0 1 0 0 0 0 1 0 0 0 0.55 0"/>
<feBlend mode="normal" in2="shape" result="effect1_innerShadow_116_2650"/>
</filter>
<filter id="filter4_i_116_2650" x="8.06152" y="-1.30954" width="81.1992" height="84.0507" filterUnits="userSpaceOnUse" color-interpolation-filters="sRGB">
<feFlood flood-opacity="0" result="BackgroundImageFix"/>
<feBlend mode="normal" in="SourceGraphic" in2="BackgroundImageFix" result="shape"/>
<feColorMatrix in="SourceAlpha" type="matrix" values="0 0 0 0 0 0 0 0 0 0 0 0 0 0 0 0 0 0 127 0" result="hardAlpha"/>
<feOffset dx="2.94915" dy="-1.47458"/>
<feGaussianBlur stdDeviation="3.68644"/>
<feComposite in2="hardAlpha" operator="arithmetic" k2="-1" k3="1"/>
<feColorMatrix type="matrix" values="0 0 0 0 1 0 0 0 0 1 0 0 0 0 1 0 0 0 0.45 0"/>
<feBlend mode="normal" in2="shape" result="effect1_innerShadow_116_2650"/>
</filter>
<filter id="filter5_i_116_2650" x="16.8535" y="1.63968" width="67.5752" height="75.7041" filterUnits="userSpaceOnUse" color-interpolation-filters="sRGB">
<feFlood flood-opacity="0" result="BackgroundImageFix"/>
<feBlend mode="normal" in="SourceGraphic" in2="BackgroundImageFix" result="shape"/>
<feColorMatrix in="SourceAlpha" type="matrix" values="0 0 0 0 0 0 0 0 0 0 0 0 0 0 0 0 0 0 127 0" result="hardAlpha"/>
<feOffset dx="2.94915" dy="-1.47458"/>
<feGaussianBlur stdDeviation="0.737288"/>
<feComposite in2="hardAlpha" operator="arithmetic" k2="-1" k3="1"/>
<feColorMatrix type="matrix" values="0 0 0 0 1 0 0 0 0 1 0 0 0 0 1 0 0 0 0.55 0"/>
<feBlend mode="normal" in2="shape" result="effect1_innerShadow_116_2650"/>
</filter>
<linearGradient id="paint0_linear_116_2650" x1="154.182" y1="3.11426" x2="154.182" y2="77.3439" gradientUnits="userSpaceOnUse">
<stop stop-color="#FBE256"/>
<stop offset="1" stop-color="#E66C00"/>
</linearGradient>
<linearGradient id="paint1_linear_116_2650" x1="102.043" y1="3.11426" x2="102.043" y2="77.3439" gradientUnits="userSpaceOnUse">
<stop stop-color="#FBE256"/>
<stop offset="1" stop-color="#E66C00"/>
</linearGradient>
<linearGradient id="paint2_linear_116_2650" x1="49.9038" y1="3.11426" x2="49.9038" y2="77.3439" gradientUnits="userSpaceOnUse">
<stop stop-color="#FBE256"/>
<stop offset="1" stop-color="#E66C00"/>
</linearGradient>
</defs>
</svg>
