<svg width="28" height="29" viewBox="0 0 28 29" fill="none" xmlns="http://www.w3.org/2000/svg">
<path d="M7.32652 26.4587C9.33684 26.4587 10.9665 24.829 10.9665 22.8187C10.9665 20.8084 9.33684 19.1787 7.32652 19.1787C5.31621 19.1787 3.68652 20.8084 3.68652 22.8187C3.68652 24.829 5.31621 26.4587 7.32652 26.4587Z" stroke="#17C6FF" stroke-width="1.5" stroke-linecap="round" stroke-linejoin="round"/>
<path d="M24.3135 20.3922V6.15889C24.3135 3.12556 22.4118 2.70556 20.4868 3.23056L13.2068 5.21389C11.8768 5.57556 10.9668 6.62556 10.9668 8.14222V10.6739V12.3772V22.8072" stroke="#17C6FF" stroke-width="1.5" stroke-linecap="round" stroke-linejoin="round"/>
<path d="M20.6732 24.032C22.6835 24.032 24.3132 22.4023 24.3132 20.392C24.3132 18.3816 22.6835 16.752 20.6732 16.752C18.6629 16.752 17.0332 18.3816 17.0332 20.392C17.0332 22.4023 18.6629 24.032 20.6732 24.032Z" stroke="#17C6FF" stroke-width="1.5" stroke-linecap="round" stroke-linejoin="round"/>
<path d="M10.9668 11.8988L24.3135 8.25879" stroke="#17C6FF" stroke-width="1.5" stroke-linecap="round" stroke-linejoin="round"/>
</svg>
