<svg width="28" height="29" viewBox="0 0 28 29" fill="none" xmlns="http://www.w3.org/2000/svg">
<path d="M11.1648 15.3286L7.60645 18.8869" stroke="#17C6FF" stroke-width="1.5" stroke-miterlimit="10" stroke-linecap="round" stroke-linejoin="round"/>
<path d="M7.6416 15.3638L11.1999 18.9221" stroke="#17C6FF" stroke-width="1.5" stroke-miterlimit="10" stroke-linecap="round" stroke-linejoin="round"/>
<path d="M15.7852 17.1255H15.7968" stroke="#17C6FF" stroke-width="2" stroke-miterlimit="10" stroke-linecap="round" stroke-linejoin="round"/>
<path d="M20.3818 17.1255H20.3935" stroke="#17C6FF" stroke-width="2" stroke-miterlimit="10" stroke-linecap="round" stroke-linejoin="round"/>
<path d="M18.0835 19.4354V19.4121" stroke="#17C6FF" stroke-width="2" stroke-miterlimit="10" stroke-linecap="round" stroke-linejoin="round"/>
<path d="M18.0835 14.8388V14.8154" stroke="#17C6FF" stroke-width="2" stroke-miterlimit="10" stroke-linecap="round" stroke-linejoin="round"/>
<path d="M10.5002 26.4587H17.5002C23.3335 26.4587 25.6668 24.1253 25.6668 18.292V15.9587C25.6668 10.1253 23.3335 7.79199 17.5002 7.79199H10.5002C4.66683 7.79199 2.3335 10.1253 2.3335 15.9587V18.292C2.3335 24.1253 4.66683 26.4587 10.5002 26.4587Z" stroke="#17C6FF" stroke-width="1.5" stroke-linecap="round" stroke-linejoin="round"/>
<path d="M15.1784 3.12549L15.1667 4.30382C15.1551 4.94549 14.6417 5.45882 14.0001 5.45882H13.9651C13.3234 5.45882 12.8101 5.98382 12.8101 6.62549C12.8101 7.26716 13.3351 7.79216 13.9767 7.79216H15.1434" stroke="#17C6FF" stroke-width="1.5" stroke-linecap="round" stroke-linejoin="round"/>
</svg>
