<svg width="28" height="29" viewBox="0 0 28 29" fill="none" xmlns="http://www.w3.org/2000/svg">
<path d="M14.6185 24.6154H7.24516C3.5585 24.6154 2.3335 22.1654 2.3335 19.7038V9.88042C2.3335 6.19375 3.5585 4.96875 7.24516 4.96875H14.6185C18.3052 4.96875 19.5302 6.19375 19.5302 9.88042V19.7038C19.5302 23.3904 18.2935 24.6154 14.6185 24.6154Z" stroke="#17C6FF" stroke-width="1.5" stroke-linecap="round" stroke-linejoin="round"/>
<path d="M22.7731 20.7421L19.5298 18.4671V11.1055L22.7731 8.83048C24.3598 7.72215 25.6665 8.39881 25.6665 10.3471V19.2371C25.6665 21.1855 24.3598 21.8621 22.7731 20.7421Z" stroke="#17C6FF" stroke-width="1.5" stroke-linecap="round" stroke-linejoin="round"/>
<path d="M13.4165 13.6255C14.383 13.6255 15.1665 12.842 15.1665 11.8755C15.1665 10.909 14.383 10.1255 13.4165 10.1255C12.45 10.1255 11.6665 10.909 11.6665 11.8755C11.6665 12.842 12.45 13.6255 13.4165 13.6255Z" stroke="#17C6FF" stroke-width="1.5" stroke-linecap="round" stroke-linejoin="round"/>
</svg>
