<svg width="28" height="29" viewBox="0 0 28 29" fill="none" xmlns="http://www.w3.org/2000/svg">
<path d="M10.6867 12.7443C10.5701 12.7327 10.4301 12.7327 10.3017 12.7443C7.52507 12.651 5.32007 10.376 5.32007 7.576C5.32007 4.71766 7.63007 2.396 10.5001 2.396C13.3584 2.396 15.6801 4.71766 15.6801 7.576C15.6684 10.376 13.4634 12.651 10.6867 12.7443Z" stroke="#17C6FF" stroke-width="1.5" stroke-linecap="round" stroke-linejoin="round"/>
<path d="M19.1451 4.729C21.4084 4.729 23.2284 6.56067 23.2284 8.81234C23.2284 11.0173 21.4784 12.814 19.2967 12.8957C19.2034 12.884 19.0984 12.884 18.9934 12.8957" stroke="#17C6FF" stroke-width="1.5" stroke-linecap="round" stroke-linejoin="round"/>
<path d="M4.85334 17.049C2.03001 18.939 2.03001 22.019 4.85334 23.8973C8.06167 26.044 13.3233 26.044 16.5317 23.8973C19.355 22.0073 19.355 18.9273 16.5317 17.049C13.335 14.914 8.07334 14.914 4.85334 17.049Z" stroke="#17C6FF" stroke-width="1.5" stroke-linecap="round" stroke-linejoin="round"/>
<path d="M21.3967 23.396C22.2367 23.221 23.0301 22.8827 23.6834 22.381C25.5034 21.016 25.5034 18.7643 23.6834 17.3993C23.0417 16.9093 22.2601 16.5827 21.4317 16.396" stroke="#17C6FF" stroke-width="1.5" stroke-linecap="round" stroke-linejoin="round"/>
</svg>
