<svg width="28" height="29" viewBox="0 0 28 29" fill="none" xmlns="http://www.w3.org/2000/svg">
<path d="M14.6738 18.4815C14.6738 19.3027 14.4409 19.9382 13.9752 20.3879C13.5198 20.8376 12.8626 21.0625 12.0035 21.0625C11.1445 21.0625 10.4821 20.8376 10.0163 20.3879C9.56095 19.9382 9.33325 19.3027 9.33325 18.4815V17.6749C9.33325 16.6191 9.68515 15.9054 10.3889 15.5339C9.68515 15.1721 9.33325 14.4829 9.33325 13.4661V13.1435C9.33325 12.3223 9.56095 11.6868 10.0163 11.2371C10.4821 10.7874 11.1445 10.5625 12.0035 10.5625C12.8626 10.5625 13.5198 10.7874 13.9752 11.2371C14.4409 11.6868 14.6738 12.3223 14.6738 13.1435V13.4661C14.6738 14.4731 14.3219 15.1624 13.6181 15.5339C14.3219 15.9054 14.6738 16.6191 14.6738 17.6749V18.4815ZM11.041 13.7741C11.041 14.4976 11.3618 14.8593 12.0035 14.8593C12.6452 14.8593 12.9661 14.4976 12.9661 13.7741V13.2022C12.9661 12.772 12.8781 12.4689 12.7021 12.2929C12.5365 12.117 12.3037 12.029 12.0035 12.029C11.7034 12.029 11.4653 12.117 11.2894 12.2929C11.1238 12.4689 11.041 12.772 11.041 13.2022V13.7741ZM11.041 18.4375C11.041 18.8579 11.1238 19.1561 11.2894 19.3321C11.4653 19.508 11.7034 19.596 12.0035 19.596C12.3037 19.596 12.5365 19.5129 12.7021 19.3467C12.8677 19.1707 12.9557 18.8677 12.9661 18.4375V17.4843C12.9661 16.7119 12.6452 16.3258 12.0035 16.3258C11.3618 16.3258 11.041 16.7119 11.041 17.4843V18.4375Z" fill="#17C6FF"/>
<path d="M20.428 15.2406C20.7439 15.2406 20.9999 15.4966 20.9999 15.8125C20.9999 16.1284 20.7439 16.3844 20.428 16.3844H18.9196V17.788C18.9196 18.1224 18.6485 18.3935 18.3141 18.3935C17.9797 18.3935 17.7087 18.1224 17.7087 17.788V16.3844H16.2003C15.8844 16.3844 15.6283 16.1284 15.6283 15.8125C15.6283 15.4966 15.8844 15.2406 16.2003 15.2406H17.7087V13.8663C17.7087 13.5319 17.9797 13.2608 18.3141 13.2608C18.6485 13.2608 18.9196 13.5319 18.9196 13.8663V15.2406H20.428Z" fill="#17C6FF"/>
<path d="M16.3098 6.15267C16.0531 6.15267 15.7965 6.03604 15.6332 5.82604L13.3231 2.94434C13.0198 2.571 13.0781 2.01102 13.4631 1.71935C13.8364 1.41602 14.3848 1.47434 14.6882 1.85934L16.9981 4.74105C17.3015 5.11438 17.2431 5.67437 16.8581 5.96603C16.6948 6.0827 16.4964 6.15267 16.3098 6.15267Z" fill="#17C6FF"/>
<path d="M13.9999 26.6042C7.80486 26.6042 2.75317 21.5642 2.75317 15.3575C2.75317 9.15086 7.79319 4.11084 13.9999 4.11084C14.8049 4.11084 15.6216 4.20418 16.5082 4.41418C16.9749 4.51918 17.2782 4.99755 17.1616 5.46421C17.0566 5.93088 16.5782 6.23421 16.1115 6.11754C15.3649 5.94254 14.6649 5.86084 13.9999 5.86084C8.76153 5.86084 4.50317 10.1192 4.50317 15.3575C4.50317 20.5959 8.76153 24.8542 13.9999 24.8542C19.2382 24.8542 23.4965 20.5959 23.4965 15.3575C23.4965 13.3275 22.8315 11.3675 21.5715 9.68754C21.2798 9.30254 21.3615 8.75422 21.7465 8.46255C22.1315 8.17089 22.6799 8.25251 22.9715 8.63751C24.4649 10.6208 25.2465 12.9425 25.2465 15.3575C25.2465 21.5642 20.1949 26.6042 13.9999 26.6042Z" fill="#17C6FF"/>
</svg>
