<svg width="28" height="29" viewBox="0 0 28 29" fill="none" xmlns="http://www.w3.org/2000/svg">
<path d="M2.3335 26.4585H25.6668" stroke="#17C6FF" stroke-width="1.5" stroke-linecap="round" stroke-linejoin="round"/>
<path d="M3.62842 26.4585V15.9585C3.62842 14.0218 5.36675 12.4585 7.51342 12.4585H20.4751C22.6218 12.4585 24.3601 14.0218 24.3601 15.9585V26.4585" stroke="#17C6FF" stroke-width="1.5" stroke-linecap="round" stroke-linejoin="round"/>
<path d="M6.48682 12.4588V9.15716C6.48682 7.75716 7.74682 6.62549 9.31015 6.62549H18.7018C20.2535 6.62549 21.5135 7.75716 21.5135 9.15716V12.4588" stroke="#17C6FF" stroke-width="1.5" stroke-linecap="round" stroke-linejoin="round"/>
<path d="M4.11816 17.1021L4.54983 17.1137C5.41316 17.1254 6.1015 17.8254 6.1015 18.6887V19.0737C6.1015 19.9371 6.8015 20.6487 7.6765 20.6487C8.53983 20.6487 9.2515 19.9487 9.2515 19.0737V18.7121C9.2515 17.8487 9.9515 17.1371 10.8265 17.1371C11.6898 17.1371 12.4015 17.8371 12.4015 18.7121V19.0737C12.4015 19.9371 13.1015 20.6487 13.9765 20.6487C14.8398 20.6487 15.5515 19.9487 15.5515 19.0737V18.7121C15.5515 17.8487 16.2515 17.1371 17.1265 17.1371C17.9898 17.1371 18.7015 17.8371 18.7015 18.7121V19.0737C18.7015 19.9371 19.4015 20.6487 20.2765 20.6487C21.1398 20.6487 21.8515 19.9487 21.8515 19.0737V18.7121C21.8515 17.8487 22.5515 17.1371 23.4265 17.1371H23.9515" stroke="#17C6FF" stroke-width="1.5" stroke-linecap="round" stroke-linejoin="round"/>
<path d="M9.3335 6.62533V4.29199" stroke="#17C6FF" stroke-width="1.5" stroke-linecap="round" stroke-linejoin="round"/>
<path d="M18.6665 6.62533V4.29199" stroke="#17C6FF" stroke-width="1.5" stroke-linecap="round" stroke-linejoin="round"/>
<path d="M14 6.62549V3.12549" stroke="#17C6FF" stroke-width="1.5" stroke-linecap="round" stroke-linejoin="round"/>
</svg>
