<svg width="28" height="29" viewBox="0 0 28 29" fill="none" xmlns="http://www.w3.org/2000/svg">
<path d="M25.2934 20.5787L21.6417 12.0504C20.4051 9.15706 18.1301 9.04039 16.6017 11.7937L14.3967 15.7721C13.2767 17.7904 11.1884 17.9654 9.74174 16.1571L9.48508 15.8304C7.98008 13.9404 5.85674 14.1737 4.77174 16.3321L2.76508 20.3571C1.35341 23.1571 3.39508 26.4587 6.52174 26.4587H21.4084C24.4417 26.4587 26.4834 23.3671 25.2934 20.5787Z" stroke="#17C6FF" stroke-width="1.5" stroke-linecap="round" stroke-linejoin="round"/>
<path d="M8.13184 10.1255C10.0648 10.1255 11.6318 8.55848 11.6318 6.62549C11.6318 4.69249 10.0648 3.12549 8.13184 3.12549C6.19884 3.12549 4.63184 4.69249 4.63184 6.62549C4.63184 8.55848 6.19884 10.1255 8.13184 10.1255Z" stroke="#17C6FF" stroke-width="1.5" stroke-linecap="round" stroke-linejoin="round"/>
</svg>
