<svg width="28" height="29" viewBox="0 0 28 29" fill="none" xmlns="http://www.w3.org/2000/svg">
<path d="M23.2985 12.4585H4.63184V21.7918C4.63184 25.2918 5.7985 26.4585 9.2985 26.4585H18.6318C22.1318 26.4585 23.2985 25.2918 23.2985 21.7918V12.4585Z" stroke="#17C6FF" stroke-width="1.5" stroke-miterlimit="10" stroke-linecap="round" stroke-linejoin="round"/>
<path d="M25.0832 8.95882V10.1255C25.0832 11.4088 24.4648 12.4588 22.7498 12.4588H5.24984C3.46484 12.4588 2.9165 11.4088 2.9165 10.1255V8.95882C2.9165 7.67549 3.46484 6.62549 5.24984 6.62549H22.7498C24.4648 6.62549 25.0832 7.67549 25.0832 8.95882Z" stroke="#17C6FF" stroke-width="1.5" stroke-miterlimit="10" stroke-linecap="round" stroke-linejoin="round"/>
<path d="M13.5801 6.6255H7.14007C6.74341 6.19383 6.75507 5.52883 7.17507 5.10883L8.83174 3.45217C9.26341 3.0205 9.97507 3.0205 10.4067 3.45217L13.5801 6.6255Z" stroke="#17C6FF" stroke-width="1.5" stroke-miterlimit="10" stroke-linecap="round" stroke-linejoin="round"/>
<path d="M20.8482 6.6255H14.4082L17.5815 3.45217C18.0132 3.0205 18.7249 3.0205 19.1565 3.45217L20.8132 5.10883C21.2332 5.52883 21.2449 6.19383 20.8482 6.6255Z" stroke="#17C6FF" stroke-width="1.5" stroke-miterlimit="10" stroke-linecap="round" stroke-linejoin="round"/>
<path d="M10.4302 12.4585V18.4552C10.4302 19.3885 11.4568 19.9368 12.2385 19.4352L13.3352 18.7118C13.7318 18.4552 14.2335 18.4552 14.6185 18.7118L15.6568 19.4118C16.4268 19.9252 17.4652 19.3768 17.4652 18.4435V12.4585H10.4302Z" stroke="#17C6FF" stroke-width="1.5" stroke-miterlimit="10" stroke-linecap="round" stroke-linejoin="round"/>
</svg>
