<svg width="28" height="29" viewBox="0 0 28 29" fill="none" xmlns="http://www.w3.org/2000/svg">
<path fill-rule="evenodd" clip-rule="evenodd" d="M27.6136 20.146C27.0721 20.7449 25.7455 21.1721 25.7455 21.1721L15.8768 24.2794V21.9878L23.1395 19.7194C23.9637 19.4605 24.0902 19.0946 23.4203 18.9025C22.7516 18.7099 21.5409 18.7651 20.7161 19.025L15.8768 20.5191V18.1409L16.1557 18.0581C16.1557 18.0581 17.5541 17.6243 19.5204 17.4333C21.4867 17.2434 23.8944 17.4592 25.7846 18.0873C27.9146 18.6773 28.1545 19.5472 27.6136 20.146ZM16.8162 16.2439V10.3835C16.8162 9.69524 16.6714 9.06162 15.9347 8.88224C15.3705 8.72384 15.0205 9.18305 15.0205 9.87075V24.5465L10.5054 23.2904V5.79199C12.4252 6.10438 15.222 6.84287 16.7255 7.28717C20.5492 8.43794 21.8456 9.8702 21.8456 13.0973C21.8456 16.2428 19.6306 17.4349 16.8162 16.2439ZM2.22082 21.7483C0.0341277 21.2085 -0.329796 20.0836 0.666901 19.4357C1.58804 18.8374 3.15455 18.387 3.15455 18.387L9.62836 16.3692V18.6696L4.96976 20.1311C4.14684 20.39 4.02029 20.7564 4.68895 20.9485C5.35824 21.1406 6.56964 21.086 7.39382 20.8265L9.62836 20.1157V22.1738C9.4867 22.1959 9.32866 22.218 9.18259 22.2395C6.94742 22.5596 4.5668 22.426 2.22082 21.7483ZM26.1756 22.6595C26.4583 22.6595 26.7233 22.7555 26.9229 22.9327C27.1225 23.1071 27.2327 23.34 27.2327 23.5873C27.2327 23.8357 27.1225 24.0675 26.9229 24.2419C26.7233 24.4179 26.4583 24.514 26.1756 24.514C25.8929 24.514 25.6284 24.4179 25.4282 24.2419C25.2286 24.0675 25.119 23.8357 25.119 23.5873C25.119 23.0762 25.5925 22.6595 26.1756 22.6595ZM25.2966 23.5873C25.2966 23.7932 25.3879 23.9869 25.5541 24.1315C25.7197 24.2783 25.9413 24.3578 26.1756 24.3578C26.661 24.3578 27.0545 24.0123 27.0545 23.5873C27.0545 23.3809 26.9638 23.1871 26.797 23.042C26.6314 22.8952 26.4098 22.8162 26.1756 22.8162C25.9413 22.8162 25.7197 22.8952 25.5541 23.042C25.3879 23.1871 25.2966 23.3809 25.2966 23.5873ZM26.4948 23.0878C26.6106 23.1325 26.6692 23.2186 26.6692 23.3411C26.6692 23.4041 26.6541 23.457 26.6232 23.4984C26.6012 23.5282 26.5697 23.5525 26.5344 23.5735C26.5621 23.5878 26.5867 23.605 26.605 23.6248C26.6301 23.6535 26.6446 23.6993 26.6465 23.7617L26.6522 23.8936C26.6541 23.9289 26.6566 23.956 26.6629 23.9725C26.6692 23.9968 26.6812 24.0123 26.6963 24.0172L26.712 24.0239V24.0388V24.0614V24.084H26.6862H26.4992H26.4841L26.4765 24.0724C26.4702 24.0614 26.4658 24.0487 26.4614 24.0322C26.4583 24.0173 26.4551 23.9913 26.4532 23.9516L26.4438 23.7877C26.4412 23.7308 26.4192 23.6955 26.3777 23.6767C26.3518 23.6662 26.309 23.6613 26.2511 23.6613H25.9306V24.0614V24.084H25.9042H25.7518H25.726V24.0614V23.0751V23.0525H25.7518H26.2725C26.3619 23.0525 26.4368 23.0641 26.4948 23.0878ZM25.9306 23.5034H26.2568C26.3223 23.5034 26.3745 23.4929 26.4117 23.4714C26.4457 23.4499 26.462 23.4107 26.462 23.3538C26.462 23.292 26.4387 23.2517 26.3896 23.2302C26.3626 23.2186 26.3248 23.212 26.2769 23.212H25.9306V23.5034Z" fill="#17C6FF"/>
</svg>
