<svg width="28" height="28" viewBox="0 0 28 28" fill="none" xmlns="http://www.w3.org/2000/svg">
<path d="M25.6316 21.3788C25.6316 21.7988 25.5383 22.2305 25.3399 22.6505C25.1416 23.0705 24.8849 23.4671 24.5466 23.8405C23.9749 24.4705 23.3449 24.9255 22.6333 25.2171C21.9333 25.5088 21.1749 25.6605 20.3583 25.6605C19.1683 25.6605 17.8966 25.3805 16.5549 24.8088C15.2133 24.2371 13.8716 23.4671 12.5416 22.4988C11.1999 21.5188 9.92825 20.4338 8.71492 19.2321C7.51325 18.0188 6.42825 16.7471 5.45992 15.4171C4.50325 14.0871 3.73325 12.7571 3.17325 11.4388C2.61325 10.1088 2.33325 8.83715 2.33325 7.62381C2.33325 6.83048 2.47325 6.07215 2.75325 5.37215C3.03325 4.66048 3.47659 4.00715 4.09492 3.42382C4.84159 2.68882 5.65825 2.32715 6.52159 2.32715C6.84825 2.32715 7.17492 2.39715 7.46659 2.53715C7.76992 2.67715 8.03825 2.88715 8.24825 3.19048L10.9549 7.00548C11.1649 7.29715 11.3166 7.56548 11.4216 7.82215C11.5266 8.06715 11.5849 8.31215 11.5849 8.53382C11.5849 8.81382 11.5033 9.09381 11.3399 9.36215C11.1883 9.63048 10.9666 9.91048 10.6866 10.1905L9.79992 11.1121C9.67158 11.2405 9.61325 11.3921 9.61325 11.5788C9.61325 11.6721 9.62492 11.7538 9.64825 11.8471C9.68325 11.9405 9.71825 12.0105 9.74159 12.0805C9.95159 12.4655 10.3133 12.9671 10.8266 13.5738C11.3516 14.1805 11.9116 14.7988 12.5183 15.4171C13.1483 16.0355 13.7549 16.6071 14.3733 17.1321C14.9799 17.6455 15.4816 17.9955 15.8783 18.2055C15.9366 18.2288 16.0066 18.2638 16.0883 18.2988C16.1816 18.3338 16.2749 18.3455 16.3799 18.3455C16.5783 18.3455 16.7299 18.2755 16.8583 18.1471L17.7449 17.2721C18.0366 16.9805 18.3166 16.7588 18.5849 16.6188C18.8533 16.4555 19.1216 16.3738 19.4133 16.3738C19.6349 16.3738 19.8683 16.4205 20.1249 16.5255C20.3816 16.6305 20.6499 16.7821 20.9416 16.9805L24.8033 19.7221C25.1066 19.9321 25.3166 20.1771 25.4449 20.4688C25.5616 20.7605 25.6316 21.0521 25.6316 21.3788Z" stroke="#17C6FF" stroke-width="1.5" stroke-miterlimit="10"/>
</svg>
