<svg width="110" height="31" viewBox="0 0 110 31" fill="none" xmlns="http://www.w3.org/2000/svg">
<path fill-rule="evenodd" clip-rule="evenodd" d="M18.8002 7.33984C14.9002 7.33984 11.9752 9.71484 12.0002 13.8398H15.6252C15.5752 12.1898 16.6252 10.5898 18.8002 10.5898C20.4502 10.5898 21.5002 11.6898 21.5002 13.0898C21.5002 14.5398 20.3502 15.3398 18.5002 16.2398C16.0752 17.4148 14.6252 17.9648 12.0002 18.8398V23.5898H25.0002V20.3398H16.9002C18.1532 19.8178 19.3732 19.2438 20.4752 18.7148C23.4002 17.3148 25.1252 15.7398 25.1252 12.9148C25.1252 9.51484 22.5752 7.33984 18.8002 7.33984ZM30.7502 10.8398H38.2502V7.58984H27.2502V23.5898H30.7502V10.8398ZM43.5002 7.58984H40.0002V23.5898H43.4752L50.0002 13.3648V23.5898H53.5002V7.58984H50.0002L43.5002 17.8148V7.58984ZM71.0752 17.5898H67.4502C66.9002 19.3648 65.2252 20.5898 63.2502 20.5898C60.3752 20.5898 58.5002 18.1148 58.5002 15.5898C58.5002 13.0648 60.3252 10.5898 63.3502 10.5898C65.3502 10.5898 66.9002 11.8148 67.4502 13.5898H71.0752C70.5502 10.0148 67.7252 7.33984 63.2502 7.33984C58.3002 7.33984 55.0002 10.8148 55.0002 15.5898C55.0002 20.3648 58.3002 23.8398 63.2502 23.8398C67.7252 23.8398 70.5502 21.2148 71.0752 17.5898Z" fill="white"/>
<path fill-rule="evenodd" clip-rule="evenodd" d="M87 27.3398C93.6 27.3398 99 21.9638 99 15.3398C99 8.71584 93.6 3.33984 87 3.33984C80.376 3.33984 75 8.71584 75 15.3398C75 21.9638 80.376 27.3398 87 27.3398Z" fill="#299400"/>
<path fill-rule="evenodd" clip-rule="evenodd" d="M86.925 7.33984C91.05 7.33984 93.85 10.5148 93.85 13.9398C93.85 15.3148 93.55 16.5148 92.85 18.0148C88.75 18.0148 88 20.7398 87.825 22.5648L87.7 23.8398H86.15L86.025 22.5648C85.85 20.7398 85.1 18.0148 81 18.0148C80.3 16.5148 80 15.3148 80 13.9398C80 10.5148 82.8 7.33984 86.925 7.33984Z" fill="white"/>
</svg>
