<svg width="110" height="31" viewBox="0 0 110 31" fill="none" xmlns="http://www.w3.org/2000/svg">
<g clip-path="url(#clip0_116_2937)">
<path fill-rule="evenodd" clip-rule="evenodd" d="M40.3763 21.4473H35.6571C36.601 19.2613 36.8841 15.3646 36.8841 12.8936V12.4184H40.4707V21.4473H40.3763ZM51.9857 12.2283C53.6846 12.2283 54.1565 13.6539 54.1565 15.3646V15.6498H49.4373C49.626 13.4638 50.3811 12.2283 51.9857 12.2283ZM26.7849 9.85224V15.4597H22.2545V9.85224H18.8566V24.1084H22.2545V18.1208H26.6906V24.1084H30.0884V9.85224H26.7849ZM45.19 21.4473H43.6798V9.85224H33.8638V11.0878C33.8638 14.6043 33.675 19.0712 32.448 21.4473H31.4098V27.3398H34.5245V24.1084H42.0753V27.3398H45.19V21.4473ZM68.2198 24.1084H71.9952L66.6153 16.5051L71.3345 9.85224H67.9367L63.2174 16.5051V9.85224H59.8196V24.1084H63.2174V17.1704L68.2198 24.1084ZM57.46 23.158V20.4018C56.4217 21.1622 54.6284 21.7324 53.0239 21.7324C50.5699 21.7324 49.626 20.5919 49.5317 18.2159H57.6487V16.4101C57.6487 11.4679 55.4779 9.56712 52.08 9.56712C48.0215 9.56712 46.0394 12.7035 46.0394 16.9803C46.0394 21.9225 48.4934 24.3936 52.7407 24.3936C54.9116 24.3936 56.5161 23.8233 57.46 23.158ZM78.4134 24.3936C73.9773 24.3936 71.8064 21.7324 71.8064 16.9803C71.8064 12.6084 74.0717 9.56712 78.319 9.56712C80.0179 9.56712 81.2449 9.85224 81.9056 10.2324V13.0836C81.2449 12.6084 79.9235 12.2283 78.6965 12.2283C76.5257 12.2283 75.2987 13.844 75.2987 16.8853C75.2987 19.8316 76.2425 21.7324 78.6965 21.7324C80.1123 21.7324 81.1505 21.3522 82 20.782V23.5382C81.0562 24.1084 80.0179 24.3936 78.4134 24.3936ZM12.7216 24.1084H16.1195V4.33984H11.1171C6.11469 4.33984 3.47192 6.90596 3.47192 10.7076C3.47192 13.7489 4.88768 15.5547 7.43608 17.3605L3 24.0134H6.68099L11.6834 16.5051L9.98447 15.3646C7.908 13.939 6.86976 12.7985 6.86976 10.4225C6.86976 8.33158 8.37993 6.90596 11.1171 6.90596H12.6272V24.1084H12.7216Z" fill="white"/>
<path fill-rule="evenodd" clip-rule="evenodd" d="M98.0998 2.33984C91.9998 2.33984 87 7.33984 87 13.4398C87 16.5398 88.1998 19.2398 90.1998 21.2398C92.1998 23.2398 96.8998 26.1398 97.1998 29.2398C97.1998 29.7398 97.5998 30.0398 97.9998 30.0398C98.4998 30.0398 98.7998 29.6398 98.7998 29.2398C99.0998 26.2398 103.8 23.2398 105.8 21.2398C107.8 19.2398 109 16.4398 109 13.4398C109.2 7.23984 104.2 2.33984 98.0998 2.33984Z" fill="#FF4433"/>
<path fill-rule="evenodd" clip-rule="evenodd" d="M98.0997 17.2395C100.2 17.2395 102 15.5395 102 13.3395C102 11.2395 100.3 9.43945 98.0997 9.43945C95.9997 9.43945 94.1997 11.1395 94.1997 13.3395C94.1997 15.5395 95.8997 17.2395 98.0997 17.2395Z" fill="white"/>
</g>
<defs>
<clipPath id="clip0_116_2937">
<rect width="110" height="30" fill="white" transform="translate(0 0.339844)"/>
</clipPath>
</defs>
</svg>
