<svg width="12" height="7" viewBox="0 0 12 7" fill="none" xmlns="http://www.w3.org/2000/svg">
<path d="M10.9978 0.326L5.99983 5.198L1.00183 0.326C0.912538 0.23877 0.792662 0.189934 0.667832 0.189934C0.543002 0.189934 0.423126 0.23877 0.333832 0.326C0.290594 0.368364 0.256244 0.41893 0.232794 0.474736C0.209344 0.530542 0.197266 0.590467 0.197266 0.651C0.197266 0.711532 0.209344 0.771457 0.232794 0.827263C0.256244 0.883069 0.290594 0.933635 0.333832 0.975999L5.65083 6.16C5.74421 6.25101 5.86944 6.30195 5.99983 6.30195C6.13022 6.30195 6.25546 6.25101 6.34883 6.16L11.6658 0.977C11.7094 0.934604 11.744 0.883914 11.7676 0.827922C11.7912 0.771931 11.8034 0.711773 11.8034 0.651C11.8034 0.590226 11.7912 0.530067 11.7676 0.474076C11.744 0.418085 11.7094 0.367395 11.6658 0.324999C11.5765 0.23777 11.4567 0.188934 11.3318 0.188934C11.207 0.188934 11.0871 0.23777 10.9978 0.324999V0.326Z" fill="#2a2a2a"/>
</svg>
