<svg width="28" height="24" viewBox="0 0 28 24" fill="none" xmlns="http://www.w3.org/2000/svg">
<path d="M0.616921 11.8261L7.05692 14.0131L22.3479 4.6651C22.5699 4.5301 22.7969 4.8311 22.6059 5.0071L11.0299 15.6621L10.5999 21.6271C10.5929 21.727 10.6164 21.8267 10.6674 21.913C10.7183 21.9992 10.7942 22.0679 10.8851 22.11C10.976 22.1521 11.0776 22.1656 11.1763 22.1486C11.275 22.1317 11.3663 22.0851 11.4379 22.0151L15.0019 18.5101L21.5179 23.4421C22.2199 23.9741 23.2369 23.5991 23.4259 22.7391L27.9629 2.1391C28.2219 0.964097 27.0699 -0.0279026 25.9469 0.402097L0.584921 10.1141C-0.211079 10.4191 -0.189079 11.5521 0.616921 11.8261Z" fill="#279EDA"/>
</svg>
