<svg width="28" height="28" viewBox="0 0 28 28" fill="none" xmlns="http://www.w3.org/2000/svg">
<g clip-path="url(#clip0_116_2368)">
<mask id="mask0_116_2368" style="mask-type:luminance" maskUnits="userSpaceOnUse" x="0" y="0" width="29" height="28">
<path d="M28.001 0H0.000976562V28H28.001V0Z" fill="white"/>
</mask>
<g mask="url(#mask0_116_2368)">
<path d="M23.4868 4.41724C26.1118 7.04224 27.7368 10.4797 27.7368 14.2298C27.7368 21.8547 21.3618 28.1047 13.6743 28.1047C11.3618 28.1047 9.11181 27.4797 7.04932 26.4172L-0.263184 28.2922L1.67431 21.1047C0.486817 19.0423 -0.200684 16.6673 -0.200684 14.1672C-0.200684 6.54223 6.04931 0.292236 13.6743 0.292236C17.4243 0.292236 20.9243 1.79224 23.4868 4.41724ZM13.6743 25.7297C20.0493 25.7297 25.3618 20.5422 25.3618 14.2298C25.3618 11.1047 24.0493 8.22973 21.8618 6.04223C19.6743 3.85473 16.7993 2.66724 13.7368 2.66724C7.36181 2.66724 2.17431 7.85473 2.17431 14.1672C2.17431 16.3547 2.79932 18.4797 3.92431 20.3548L4.23682 20.7923L3.04931 25.0422L7.42431 23.8548L7.79931 24.1048C9.61179 25.1673 11.6118 25.7297 13.6743 25.7297ZM20.0493 17.1048C20.3618 17.2923 20.6119 17.3547 20.6743 17.5423C20.7993 17.6672 20.7993 18.3547 20.4868 19.1672C20.1744 19.9797 18.7993 20.7297 18.1743 20.7923C17.0493 20.9797 16.1743 20.9172 13.9868 19.9173C10.4868 18.4173 8.23681 14.9173 8.04932 14.7297C7.86181 14.4798 6.67432 12.8547 6.67432 11.1047C6.67432 9.41728 7.54932 8.60473 7.86181 8.22973C8.17432 7.85473 8.54932 7.79223 8.79935 7.79223C8.98678 7.79223 9.23685 7.79223 9.42428 7.79223C9.67435 7.79223 9.92434 7.72973 10.2368 8.41724C10.4868 9.10473 11.2368 10.7922 11.2993 10.9798C11.3618 11.1673 11.4243 11.3547 11.2993 11.6048C10.6743 12.9173 9.92434 12.8547 10.2993 13.4797C11.6743 15.7923 12.9868 16.6047 15.0493 17.6047C15.3618 17.7922 15.5493 17.7298 15.7994 17.5423C15.9868 17.2923 16.6743 16.4798 16.8618 16.1672C17.1118 15.7923 17.3618 15.8547 17.6743 15.9798C17.9868 16.1047 19.6743 16.9172 20.0493 17.1048Z" fill="#0DDD1E"/>
</g>
</g>
<defs>
<clipPath id="clip0_116_2368">
<rect width="28" height="28" fill="white"/>
</clipPath>
</defs>
</svg>
