<svg width="170" height="170" viewBox="0 0 170 170" fill="none" xmlns="http://www.w3.org/2000/svg">
<path d="M165.49 148.512C167.744 150.766 169.011 153.824 169.011 157.012C169.011 160.2 167.744 163.257 165.49 165.512C163.236 167.766 160.178 169.033 156.99 169.033C153.802 169.033 150.744 167.766 148.49 165.512L85.0001 102.002L21.4901 165.492C19.2357 167.746 16.1782 169.013 12.9901 169.013C9.80194 169.013 6.7444 167.746 4.49006 165.492C2.23571 163.237 0.969238 160.18 0.969238 156.992C0.969238 153.804 2.23571 150.746 4.49006 148.492L68.0001 85.0018L4.51005 21.4917C2.25571 19.2374 0.989239 16.1799 0.989239 12.9918C0.989239 9.80363 2.25571 6.74609 4.51005 4.49175C6.76439 2.23741 9.82193 0.970936 13.0101 0.970936C16.1982 0.970936 19.2557 2.23741 21.5101 4.49175L85.0001 68.0018L148.51 4.48175C150.764 2.22741 153.822 0.960937 157.01 0.960938C160.198 0.960938 163.256 2.22741 165.51 4.48175C167.764 6.73609 169.031 9.79363 169.031 12.9818C169.031 16.1699 167.764 19.2274 165.51 21.4818L102 85.0018L165.49 148.512Z" fill="white"/>
</svg>
